name Walk10.mot
datacolumns 19
datarows 20
range 2.41000000 2.50500000
endheader

                time	   L_ground_force_vx	   L_ground_force_vy	   L_ground_force_vz	   L_ground_force_px	   L_ground_force_py	   L_ground_force_pz	   R_ground_force_vx	   R_ground_force_vy	   R_ground_force_vz	   R_ground_force_px	   R_ground_force_py	   R_ground_force_pz	   L_ground_torque_x	   L_ground_torque_y	   L_ground_torque_z	   R_ground_torque_x	   R_ground_torque_y	   R_ground_torque_z	
          2.41000000	         -0.00000000	         -0.00000000	         -0.00000000	         -0.00000000	          0.00000000	         -0.00000000	         18.87439155	         75.68595893	         18.31017658	          0.50709535	          0.00000000	          0.12723279	          0.00000000	         -0.00000000	          0.00000000	          0.00000000	         -4.39956101	          0.00000000	
          2.41500000	         -0.00000000	         -0.00000000	         -0.00000000	         -0.00000000	          0.00000000	         -0.00000000	         13.56467919	         53.07114502	         15.26674925	          0.45859972	          0.00000000	          0.11452534	          0.00000000	         -0.00000000	          0.00000000	          0.00000000	         -3.22362632	          0.00000000	
          2.42000000	         -0.00000000	         -0.00000000	         -0.00000000	         -0.00000000	          0.00000000	         -0.00000000	          9.10314364	         34.75750408	         12.21593580	          0.40057245	          0.00000000	          0.09955271	          0.00000000	         -0.00000000	          0.00000000	          0.00000000	         -2.22467815	          0.00000000	
          2.42500000	         -0.00000000	         -0.00000000	          0.00000000	         -0.00000000	          0.00000000	         -0.00000000	          5.52094486	         20.38666171	          9.32709437	          0.33534479	          0.00000000	          0.08293811	          0.00000000	         -0.00000000	          0.00000000	          0.00000000	         -1.41026168	          0.00000000	
          2.43000000	         -0.00000000	         -0.00000000	          0.00000000	          0.00000000	          0.00000000	         -0.00000000	          2.78643754	          9.57258623	          6.74066887	          0.26752623	          0.00000000	          0.06584628	          0.00000000	         -0.00000000	          0.00000000	          0.00000000	         -0.77661195	          0.00000000	
          2.43500000	         -0.00000000	         -0.00000000	          0.00000000	          0.00000000	          0.00000000	          0.00000000	          0.81247180	          1.88073219	          4.54895992	          0.20288123	          0.00000000	          0.04967884	          0.00000000	         -0.00000000	          0.00000000	          0.00000000	         -0.30884461	          0.00000000	
          2.44000000	         -0.00000000	         -0.00000000	          0.00000000	          0.00000000	          0.00000000	          0.00000000	         -0.51765089	         -3.20064798	          2.78369171	          0.14538019	          0.00000000	          0.03538198	          0.00000000	         -0.00000000	          0.00000000	          0.00000000	          0.01555140	          0.00000000	
          2.44500000	         -0.00000000	         -0.00000000	          0.00000000	          0.00000000	          0.00000000	          0.00000000	         -1.32969288	         -6.20610609	          1.43150304	          0.09700807	          0.00000000	          0.02341539	          0.00000000	         -0.00000000	          0.00000000	          0.00000000	          0.22235035	          0.00000000	
          2.45000000	         -0.00000000	         -0.00000000	          0.00000000	          0.00000000	          0.00000000	          0.00000000	         -1.74527704	         -7.64262020	          0.45115606	          0.05831581	          0.00000000	          0.01388958	          0.00000000	          0.00000000	          0.00000000	          0.00000000	          0.33738129	          0.00000000	
          2.45500000	         -0.00000000	         -0.00000000	          0.00000000	          0.00000000	          0.00000000	          0.00000000	         -1.87375281	         -7.95939003	         -0.21320245	          0.02889113	          0.00000000	          0.00668236	          0.00000000	          0.00000000	          0.00000000	          0.00000000	          0.38446562	          0.00000000	
          2.46000000	         -0.00000000	         -0.00000000	          0.00000000	          0.00000000	          0.00000000	          0.00000000	         -1.80795063	         -7.53303687	         -0.62238096	          0.00773672	          0.00000000	          0.00153202	          0.00000000	          0.00000000	          0.00000000	          0.00000000	          0.38425330	          0.00000000	
          2.46500000	         -0.00000000	         -0.00000000	          0.00000000	          0.00000000	          0.00000000	          0.00000000	         -1.62276594	         -6.66385271	         -0.83555641	         -0.00644108	          0.00000000	         -0.00189196	          0.00000000	          0.00000000	          0.00000000	          0.00000000	          0.35372736	          0.00000000	
          2.47000000	         -0.00000000	         -0.00000000	          0.00000000	          0.00000000	          0.00000000	          0.00000000	         -1.37566942	         -5.57943158	         -0.90617928	         -0.01502362	          0.00000000	         -0.00393806	          0.00000000	          0.00000000	          0.00000000	          0.00000000	          0.30617611	          0.00000000	
          2.47500000	          0.00000000	         -0.00000000	          0.00000000	          0.00000000	          0.00000000	          0.00000000	         -1.10841239	         -4.44274773	         -0.87980054	         -0.01933924	          0.00000000	         -0.00493873	          0.00000000	          0.00000000	          0.00000000	          0.00000000	          0.25146758	          0.00000000	
          2.48000000	          0.00000000	          0.00000000	          0.00000000	          0.00000000	          0.00000000	          0.00000000	         -0.84936362	         -3.36244678	         -0.79330277	         -0.02057727	          0.00000000	         -0.00518985	          0.00000000	          0.00000000	          0.00000000	          0.00000000	          0.19649602	          0.00000000	
          2.48500000	          0.00000000	          0.00000000	          0.00000000	          0.00000000	          0.00000000	          0.00000000	         -0.61606626	         -2.40374182	         -0.67509278	         -0.01974378	          0.00000000	         -0.00494043	          0.00000000	          0.00000000	          0.00000000	          0.00000000	          0.14570336	          0.00000000	
          2.49000000	          0.00000000	          0.00000000	          0.00000000	          0.00000000	          0.00000000	          0.00000000	         -0.41773380	         -1.59883599	         -0.54589532	         -0.01764779	          0.00000000	         -0.00438976	          0.00000000	          0.00000000	          0.00000000	          0.00000000	          0.10160764	          0.00000000	
          2.49500000	          0.00000000	          0.00000000	         -0.00000000	          0.00000000	          0.00000000	          0.00000000	         -0.25750934	         -0.95621687	         -0.41986978	         -0.01490794	          0.00000000	         -0.00368944	          0.00000000	          0.00000000	          0.00000000	          0.00000000	          0.06529397	          0.00000000	
          2.50000000	          0.00000000	          0.00000000	         -0.00000000	          0.00000000	          0.00000000	          0.00000000	         -0.13439462	         -0.46849249	         -0.30584541	         -0.01197189	          0.00000000	         -0.00294856	          0.00000000	          0.00000000	          0.00000000	          0.00000000	          0.03684276	          0.00000000	
          2.50500000	          0.00000000	          0.00000000	         -0.00000000	         -0.00000000	          0.00000000	         -0.00000000	         -0.04481455	         -0.11867221	         -0.20853512	         -0.00914223	          0.00000000	         -0.00224024	          0.00000000	          0.00000000	          0.00000000	          0.00000000	          0.01568373	          0.00000000	
